<svg width="389" height="94" viewBox="0 0 389 94" fill="none" xmlns="http://www.w3.org/2000/svg">
<path d="M13.788 71H7.56V21.428H13.788V71ZM14.148 44.54L33.66 21.428H40.86L21.492 44.144L42.228 71H34.452L14.148 44.54ZM50.7679 71V66.356H56.6719V37.736H50.7679V33.092H61.2799L62.3959 42.056C63.8599 38.936 65.6359 36.524 67.7239 34.82C69.8119 33.116 72.5719 32.264 76.0039 32.264C77.0599 32.264 77.9959 32.348 78.8119 32.516C79.6519 32.66 80.5039 32.852 81.3679 33.092L79.6039 38.492C78.8119 38.276 78.0919 38.12 77.4439 38.024C76.7959 37.904 76.0519 37.844 75.2119 37.844C72.3079 37.844 69.8119 38.876 67.7239 40.94C65.6359 43.004 63.9679 46.124 62.7199 50.3V66.356H70.4239V71H50.7679ZM75.5359 45.908V37.664L76.1479 33.092H81.3679L80.5039 45.908H75.5359ZM120.724 62.72C120.724 64.232 120.976 65.336 121.48 66.032C121.984 66.728 122.764 67.244 123.82 67.58L122.344 71.828C120.712 71.612 119.284 71.096 118.06 70.28C116.836 69.44 115.948 68.18 115.396 66.5C114.028 68.252 112.324 69.584 110.284 70.496C108.244 71.384 105.988 71.828 103.516 71.828C99.7238 71.828 96.7358 70.76 94.5518 68.624C92.3678 66.488 91.2758 63.656 91.2758 60.128C91.2758 56.216 92.7998 53.216 95.8477 51.128C98.8958 49.04 103.3 47.996 109.06 47.996H114.64V44.828C114.64 42.092 113.836 40.16 112.228 39.032C110.644 37.88 108.436 37.304 105.604 37.304C104.356 37.304 102.892 37.46 101.212 37.772C99.5318 38.06 97.7078 38.552 95.7398 39.248L94.1558 34.676C96.4838 33.812 98.6678 33.2 100.708 32.84C102.748 32.48 104.692 32.3 106.54 32.3C111.268 32.3 114.808 33.404 117.16 35.612C119.536 37.796 120.724 40.772 120.724 44.54V62.72ZM105.064 67.22C106.936 67.22 108.724 66.752 110.428 65.816C112.132 64.856 113.536 63.536 114.64 61.856V52.1H109.168C104.992 52.1 102.04 52.82 100.312 54.26C98.6078 55.7 97.7558 57.632 97.7558 60.056C97.7558 62.408 98.3558 64.196 99.5558 65.42C100.78 66.62 102.616 67.22 105.064 67.22ZM144.312 65.852H165.408L164.616 71H136.896V66.428L157.92 38.348H138.552V33.092H165.192V37.772L144.312 65.852ZM211.46 33.092L198.14 71.252C197.252 73.82 196.124 76.172 194.756 78.308C193.412 80.444 191.648 82.208 189.464 83.6C187.304 85.016 184.556 85.892 181.22 86.228L180.284 81.404C182.9 80.972 184.964 80.312 186.476 79.424C187.988 78.536 189.176 77.396 190.04 76.004C190.928 74.612 191.708 72.944 192.38 71H190.364L177.116 33.092H183.596L194.468 66.392L205.196 33.092H211.46ZM254.055 21.428L256.863 71H250.851L249.303 45.116C249.231 43.364 249.159 41.588 249.087 39.788C249.015 37.988 248.967 36.26 248.943 34.604C248.919 32.948 248.907 31.472 248.907 30.176C248.907 28.88 248.907 27.872 248.907 27.152L240.555 62.108H234.291L225.327 27.152C225.351 27.848 225.375 28.88 225.399 30.248C225.423 31.592 225.435 33.116 225.435 34.82C225.459 36.524 225.447 38.276 225.399 40.076C225.375 41.852 225.327 43.508 225.255 45.044L223.923 71H218.055L220.863 21.428H229.575L237.603 55.376L245.271 21.428H254.055ZM293.411 62.72C293.411 64.232 293.663 65.336 294.167 66.032C294.671 66.728 295.451 67.244 296.507 67.58L295.031 71.828C293.399 71.612 291.971 71.096 290.747 70.28C289.523 69.44 288.635 68.18 288.083 66.5C286.715 68.252 285.011 69.584 282.971 70.496C280.931 71.384 278.675 71.828 276.203 71.828C272.411 71.828 269.423 70.76 267.239 68.624C265.055 66.488 263.963 63.656 263.963 60.128C263.963 56.216 265.487 53.216 268.535 51.128C271.583 49.04 275.987 47.996 281.747 47.996H287.327V44.828C287.327 42.092 286.523 40.16 284.915 39.032C283.331 37.88 281.123 37.304 278.291 37.304C277.043 37.304 275.579 37.46 273.899 37.772C272.219 38.06 270.395 38.552 268.427 39.248L266.843 34.676C269.171 33.812 271.355 33.2 273.395 32.84C275.435 32.48 277.379 32.3 279.227 32.3C283.955 32.3 287.495 33.404 289.847 35.612C292.223 37.796 293.411 40.772 293.411 44.54V62.72ZM277.751 67.22C279.623 67.22 281.411 66.752 283.115 65.816C284.819 64.856 286.223 63.536 287.327 61.856V52.1H281.855C277.679 52.1 274.727 52.82 272.999 54.26C271.295 55.7 270.443 57.632 270.443 60.056C270.443 62.408 271.043 64.196 272.243 65.42C273.467 66.62 275.303 67.22 277.751 67.22ZM309.439 71V33.092H314.587L315.055 38.348C316.591 36.404 318.511 34.916 320.815 33.884C323.143 32.828 325.399 32.3 327.583 32.3C331.303 32.3 334.003 33.284 335.683 35.252C337.387 37.22 338.239 39.956 338.239 43.46V71H332.191V47.924C332.191 45.332 332.047 43.244 331.759 41.66C331.471 40.052 330.871 38.888 329.959 38.168C329.047 37.424 327.631 37.052 325.711 37.052C324.223 37.052 322.819 37.376 321.499 38.024C320.203 38.672 319.039 39.488 318.007 40.472C316.999 41.432 316.159 42.404 315.487 43.388V71H309.439ZM381.123 21.428V54.548C381.123 56.612 380.847 58.676 380.295 60.74C379.767 62.78 378.855 64.64 377.559 66.32C376.287 67.976 374.559 69.308 372.375 70.316C370.191 71.324 367.467 71.828 364.203 71.828C361.779 71.828 359.391 71.444 357.039 70.676C354.711 69.908 352.563 68.792 350.595 67.328L353.367 63.188C355.527 64.532 357.495 65.444 359.271 65.924C361.047 66.38 362.667 66.608 364.131 66.608C367.587 66.608 370.239 65.504 372.087 63.296C373.959 61.088 374.895 58.052 374.895 54.188V26.54H360.207V21.428H381.123Z" fill="#70D7FF"/>
</svg>
