<svg width="1209" height="94" viewBox="0 0 1209 94" fill="none" xmlns="http://www.w3.org/2000/svg">
<g clip-path="url(#clip0_1_3)">
<g filter="url(#filter0_d_1_3)">
<path d="M24.192 32.3C27.552 32.3 30.228 33.116 32.22 34.748C34.236 36.38 35.688 38.684 36.576 41.66C37.464 44.612 37.908 48.068 37.908 52.028C37.908 55.844 37.368 59.252 36.288 62.252C35.232 65.228 33.624 67.568 31.464 69.272C29.304 70.976 26.58 71.828 23.292 71.828C19.14 71.828 15.804 70.364 13.284 67.436V85.508L7.236 86.264V33.092H12.384L12.888 38.384C14.28 36.44 15.936 34.94 17.856 33.884C19.8 32.828 21.912 32.3 24.192 32.3ZM22.752 37.16C20.664 37.16 18.816 37.796 17.208 39.068C15.624 40.316 14.316 41.708 13.284 43.244V62.036C14.268 63.5 15.504 64.664 16.992 65.528C18.504 66.368 20.16 66.788 21.96 66.788C25.104 66.788 27.468 65.588 29.052 63.188C30.636 60.788 31.428 57.056 31.428 51.992C31.428 48.68 31.116 45.932 30.492 43.748C29.868 41.54 28.92 39.896 27.648 38.816C26.376 37.712 24.744 37.16 22.752 37.16ZM56.4559 33.092V59.948C56.4559 62.444 56.9719 64.244 58.0039 65.348C59.0359 66.452 60.6439 67.004 62.8279 67.004C64.9159 67.004 66.8839 66.416 68.7319 65.24C70.6039 64.04 72.0559 62.624 73.0879 60.992V33.092H79.1359V71H73.9879L73.4839 65.888C71.9959 67.808 70.1599 69.284 67.9759 70.316C65.7919 71.324 63.5839 71.828 61.3519 71.828C57.6799 71.828 54.9319 70.856 53.1079 68.912C51.3079 66.944 50.4079 64.196 50.4079 60.668V33.092H56.4559ZM99.6278 38.024C101.02 36.2 102.616 34.796 104.416 33.812C106.24 32.804 108.244 32.3 110.428 32.3C113.812 32.3 116.548 33.116 118.636 34.748C120.724 36.38 122.248 38.684 123.208 41.66C124.168 44.612 124.648 48.068 124.648 52.028C124.648 55.844 124.072 59.252 122.92 62.252C121.768 65.228 120.076 67.568 117.844 69.272C115.636 70.976 112.9 71.828 109.636 71.828C105.244 71.828 101.8 70.244 99.3038 67.076L98.8718 71H93.5798V17.828L99.6278 17.072V38.024ZM108.196 66.932C111.364 66.932 113.8 65.708 115.504 63.26C117.208 60.812 118.06 57.056 118.06 51.992C118.06 48.68 117.724 45.932 117.052 43.748C116.38 41.54 115.372 39.896 114.028 38.816C112.708 37.712 111.076 37.16 109.132 37.16C107.02 37.16 105.16 37.796 103.552 39.068C101.968 40.316 100.66 41.708 99.6278 43.244V62.036C100.612 63.524 101.848 64.712 103.336 65.6C104.848 66.488 106.468 66.932 108.196 66.932ZM151.512 17.828V61.64C151.512 63.512 152.088 64.844 153.24 65.636C154.416 66.404 155.928 66.788 157.776 66.788C158.928 66.788 160.02 66.668 161.052 66.428C162.084 66.188 163.116 65.864 164.148 65.456L165.768 69.884C164.736 70.388 163.452 70.832 161.916 71.216C160.404 71.624 158.688 71.828 156.768 71.828C153.408 71.828 150.684 70.904 148.596 69.056C146.508 67.184 145.464 64.604 145.464 61.316V22.616H133.836V17.828H151.512ZM199.112 33.092V66.212H209.804V71H181.364V66.212H193.064V37.88H181.724V33.092H199.112ZM194.288 15.344C195.632 15.344 196.7 15.752 197.492 16.568C198.308 17.384 198.716 18.38 198.716 19.556C198.716 20.78 198.308 21.812 197.492 22.652C196.7 23.468 195.632 23.876 194.288 23.876C193.016 23.876 191.972 23.468 191.156 22.652C190.34 21.812 189.932 20.78 189.932 19.556C189.932 18.38 190.34 17.384 191.156 16.568C191.972 15.752 193.016 15.344 194.288 15.344ZM240.231 66.608C242.127 66.608 243.891 66.296 245.523 65.672C247.179 65.048 248.703 64.256 250.095 63.296L253.047 67.256C251.391 68.672 249.399 69.788 247.071 70.604C244.743 71.42 242.463 71.828 240.231 71.828C236.463 71.828 233.247 71.024 230.583 69.416C227.943 67.784 225.927 65.504 224.535 62.576C223.143 59.624 222.447 56.168 222.447 52.208C222.447 48.416 223.143 45.02 224.535 42.02C225.951 38.996 227.979 36.62 230.619 34.892C233.283 33.164 236.511 32.3 240.303 32.3C242.727 32.3 244.995 32.672 247.107 33.416C249.243 34.136 251.199 35.228 252.975 36.692L250.023 40.724C248.415 39.596 246.795 38.756 245.163 38.204C243.555 37.628 241.911 37.34 240.231 37.34C236.967 37.34 234.279 38.564 232.167 41.012C230.055 43.46 228.999 47.192 228.999 52.208C228.999 55.568 229.479 58.316 230.439 60.452C231.423 62.564 232.755 64.124 234.435 65.132C236.139 66.116 238.071 66.608 240.231 66.608ZM314.191 54.188C314.311 57.116 314.875 59.516 315.883 61.388C316.891 63.236 318.223 64.604 319.879 65.492C321.535 66.356 323.335 66.788 325.279 66.788C327.223 66.788 328.975 66.5 330.535 65.924C332.119 65.348 333.739 64.496 335.395 63.368L338.239 67.364C336.463 68.756 334.435 69.848 332.155 70.64C329.899 71.432 327.583 71.828 325.207 71.828C321.535 71.828 318.403 71 315.811 69.344C313.219 67.688 311.239 65.384 309.871 62.432C308.527 59.456 307.855 56.012 307.855 52.1C307.855 48.26 308.539 44.852 309.907 41.876C311.275 38.9 313.195 36.56 315.667 34.856C318.139 33.152 321.055 32.3 324.415 32.3C327.607 32.3 330.355 33.056 332.659 34.568C334.963 36.056 336.727 38.192 337.951 40.976C339.199 43.736 339.823 47.036 339.823 50.876C339.823 51.524 339.811 52.136 339.787 52.712C339.763 53.264 339.727 53.756 339.679 54.188H314.191ZM324.487 37.268C321.679 37.268 319.327 38.264 317.431 40.256C315.559 42.248 314.491 45.332 314.227 49.508H333.991C333.919 45.452 333.031 42.404 331.327 40.364C329.623 38.3 327.343 37.268 324.487 37.268ZM352.611 71V33.092H357.759L358.227 38.348C359.763 36.404 361.683 34.916 363.987 33.884C366.315 32.828 368.571 32.3 370.755 32.3C374.475 32.3 377.175 33.284 378.855 35.252C380.559 37.22 381.411 39.956 381.411 43.46V71H375.363V47.924C375.363 45.332 375.219 43.244 374.931 41.66C374.643 40.052 374.043 38.888 373.131 38.168C372.219 37.424 370.803 37.052 368.883 37.052C367.395 37.052 365.991 37.376 364.671 38.024C363.375 38.672 362.211 39.488 361.179 40.472C360.171 41.432 359.331 42.404 358.659 43.388V71H352.611ZM401.831 33.092V59.948C401.831 62.444 402.347 64.244 403.379 65.348C404.411 66.452 406.019 67.004 408.203 67.004C410.291 67.004 412.259 66.416 414.107 65.24C415.979 64.04 417.431 62.624 418.463 60.992V33.092H424.511V71H419.363L418.859 65.888C417.371 67.808 415.535 69.284 413.351 70.316C411.167 71.324 408.959 71.828 406.727 71.828C403.055 71.828 400.307 70.856 398.483 68.912C396.683 66.944 395.783 64.196 395.783 60.668V33.092H401.831ZM463.939 32.3C465.163 32.3 466.327 32.564 467.431 33.092C468.559 33.62 469.483 34.64 470.203 36.152C470.923 37.664 471.283 39.872 471.283 42.776V71H465.667V43.748C465.667 41.372 465.523 39.656 465.235 38.6C464.947 37.544 464.119 37.016 462.751 37.016C461.623 37.016 460.495 37.376 459.367 38.096C458.263 38.792 457.183 39.944 456.127 41.552V71H450.475V43.748C450.475 41.372 450.331 39.656 450.043 38.6C449.755 37.544 448.927 37.016 447.559 37.016C446.383 37.016 445.243 37.376 444.139 38.096C443.059 38.792 441.991 39.944 440.935 41.552V71H435.355V33.092H440.107L440.467 37.484C441.499 36.02 442.651 34.796 443.923 33.812C445.219 32.804 446.815 32.3 448.711 32.3C450.151 32.3 451.507 32.648 452.779 33.344C454.051 34.016 454.987 35.336 455.587 37.304C456.619 35.816 457.783 34.616 459.079 33.704C460.375 32.768 461.995 32.3 463.939 32.3ZM1181.37 65.96C1181.37 64.4 1181.92 63.044 1183.03 61.892C1184.16 60.74 1185.54 60.164 1187.17 60.164C1188.85 60.164 1190.24 60.74 1191.34 61.892C1192.47 63.044 1193.04 64.4 1193.04 65.96C1193.04 67.592 1192.47 68.984 1191.34 70.136C1190.24 71.264 1188.85 71.828 1187.17 71.828C1185.54 71.828 1184.16 71.264 1183.03 70.136C1181.92 68.984 1181.37 67.592 1181.37 65.96ZM1181.37 40.004C1181.37 38.9 1181.62 37.916 1182.13 37.052C1182.63 36.188 1183.33 35.504 1184.22 35C1185.1 34.472 1186.09 34.208 1187.17 34.208C1188.85 34.208 1190.24 34.772 1191.34 35.9C1192.47 37.028 1193.04 38.396 1193.04 40.004C1193.04 41.588 1192.47 42.968 1191.34 44.144C1190.24 45.296 1188.85 45.872 1187.17 45.872C1185.54 45.872 1184.16 45.296 1183.03 44.144C1181.92 42.968 1181.37 41.588 1181.37 40.004Z" fill="#EE7762"/>
<path d="M551.471 36.728C551.471 34.16 550.967 32.132 549.959 30.644C548.951 29.132 547.571 28.052 545.819 27.404C544.067 26.732 542.063 26.396 539.807 26.396H532.643V47.564H539.555C541.883 47.564 543.935 47.252 545.711 46.628C547.487 45.98 548.891 44.876 549.923 43.316C550.955 41.732 551.471 39.536 551.471 36.728ZM558.167 36.656C558.167 40.52 557.339 43.616 555.683 45.944C554.051 48.272 551.795 49.964 548.915 51.02C546.035 52.076 542.723 52.604 538.979 52.604H532.643V71H526.379V21.428H539.051C544.955 21.428 549.611 22.676 553.019 25.172C556.451 27.644 558.167 31.472 558.167 36.656ZM587.658 33.092V66.212H598.35V71H569.91V66.212H581.61V37.88H570.27V33.092H587.658ZM582.834 15.344C584.178 15.344 585.246 15.752 586.038 16.568C586.854 17.384 587.262 18.38 587.262 19.556C587.262 20.78 586.854 21.812 586.038 22.652C585.246 23.468 584.178 23.876 582.834 23.876C581.562 23.876 580.518 23.468 579.702 22.652C578.886 21.812 578.478 20.78 578.478 19.556C578.478 18.38 578.886 17.384 579.702 16.568C580.518 15.752 581.562 15.344 582.834 15.344ZM611.642 71V33.092H616.79L617.258 38.348C618.794 36.404 620.714 34.916 623.018 33.884C625.346 32.828 627.602 32.3 629.786 32.3C633.506 32.3 636.206 33.284 637.886 35.252C639.59 37.22 640.442 39.956 640.442 43.46V71H634.394V47.924C634.394 45.332 634.25 43.244 633.962 41.66C633.674 40.052 633.074 38.888 632.162 38.168C631.25 37.424 629.834 37.052 627.914 37.052C626.426 37.052 625.022 37.376 623.702 38.024C622.406 38.672 621.242 39.488 620.21 40.472C619.202 41.432 618.362 42.404 617.69 43.388V71H611.642ZM654.814 71V33.092H659.962L660.43 38.348C661.966 36.404 663.886 34.916 666.19 33.884C668.518 32.828 670.774 32.3 672.958 32.3C676.678 32.3 679.378 33.284 681.058 35.252C682.762 37.22 683.614 39.956 683.614 43.46V71H677.566V47.924C677.566 45.332 677.422 43.244 677.134 41.66C676.846 40.052 676.246 38.888 675.334 38.168C674.422 37.424 673.006 37.052 671.086 37.052C669.598 37.052 668.194 37.376 666.874 38.024C665.578 38.672 664.414 39.488 663.382 40.472C662.374 41.432 661.534 42.404 660.862 43.388V71H654.814ZM702.738 54.188C702.858 57.116 703.422 59.516 704.43 61.388C705.438 63.236 706.77 64.604 708.426 65.492C710.082 66.356 711.882 66.788 713.826 66.788C715.77 66.788 717.522 66.5 719.082 65.924C720.666 65.348 722.286 64.496 723.942 63.368L726.786 67.364C725.01 68.756 722.982 69.848 720.702 70.64C718.446 71.432 716.13 71.828 713.754 71.828C710.082 71.828 706.95 71 704.358 69.344C701.766 67.688 699.786 65.384 698.418 62.432C697.074 59.456 696.402 56.012 696.402 52.1C696.402 48.26 697.086 44.852 698.454 41.876C699.822 38.9 701.742 36.56 704.214 34.856C706.686 33.152 709.602 32.3 712.962 32.3C716.154 32.3 718.902 33.056 721.206 34.568C723.51 36.056 725.274 38.192 726.498 40.976C727.746 43.736 728.37 47.036 728.37 50.876C728.37 51.524 728.358 52.136 728.334 52.712C728.31 53.264 728.274 53.756 728.226 54.188H702.738ZM713.034 37.268C710.226 37.268 707.874 38.264 705.978 40.256C704.106 42.248 703.038 45.332 702.774 49.508H722.538C722.466 45.452 721.578 42.404 719.874 40.364C718.17 38.3 715.89 37.268 713.034 37.268ZM763.838 17.072L769.886 17.828V71H764.594L764.018 65.996C762.602 68.012 760.97 69.488 759.122 70.424C757.298 71.36 755.342 71.828 753.254 71.828C749.966 71.828 747.254 71 745.118 69.344C742.982 67.688 741.398 65.384 740.366 62.432C739.334 59.456 738.818 56.012 738.818 52.1C738.818 48.308 739.406 44.924 740.582 41.948C741.758 38.948 743.45 36.596 745.658 34.892C747.89 33.164 750.566 32.3 753.686 32.3C755.87 32.3 757.79 32.684 759.446 33.452C761.102 34.196 762.566 35.3 763.838 36.764V17.072ZM755.27 37.16C752.102 37.16 749.666 38.396 747.962 40.868C746.258 43.34 745.406 47.084 745.406 52.1C745.406 55.364 745.754 58.1 746.45 60.308C747.146 62.516 748.166 64.172 749.51 65.276C750.878 66.38 752.546 66.932 754.514 66.932C756.674 66.932 758.51 66.32 760.022 65.096C761.558 63.872 762.83 62.492 763.838 60.956V42.02C762.806 40.484 761.558 39.296 760.094 38.456C758.63 37.592 757.022 37.16 755.27 37.16ZM780.694 84.068V78.776H816.694V84.068H780.694ZM853.674 36.728C853.674 34.16 853.17 32.132 852.162 30.644C851.154 29.132 849.774 28.052 848.022 27.404C846.27 26.732 844.266 26.396 842.01 26.396H834.846V47.564H841.758C844.086 47.564 846.138 47.252 847.914 46.628C849.69 45.98 851.094 44.876 852.126 43.316C853.158 41.732 853.674 39.536 853.674 36.728ZM860.37 36.656C860.37 40.52 859.542 43.616 857.886 45.944C856.254 48.272 853.998 49.964 851.118 51.02C848.238 52.076 844.926 52.604 841.182 52.604H834.846V71H828.582V21.428H841.254C847.158 21.428 851.814 22.676 855.222 25.172C858.654 27.644 860.37 31.472 860.37 36.656ZM871.034 71V66.356H876.938V37.736H871.034V33.092H881.546L882.662 42.056C884.126 38.936 885.902 36.524 887.99 34.82C890.078 33.116 892.838 32.264 896.27 32.264C897.326 32.264 898.262 32.348 899.078 32.516C899.918 32.66 900.77 32.852 901.634 33.092L899.87 38.492C899.078 38.276 898.358 38.12 897.71 38.024C897.062 37.904 896.318 37.844 895.478 37.844C892.574 37.844 890.078 38.876 887.99 40.94C885.902 43.004 884.234 46.124 882.986 50.3V66.356H890.69V71H871.034ZM895.802 45.908V37.664L896.414 33.092H901.634L900.77 45.908H895.802ZM928.281 32.3C931.857 32.3 934.845 33.116 937.245 34.748C939.669 36.356 941.481 38.636 942.681 41.588C943.905 44.54 944.517 48.02 944.517 52.028C944.517 55.892 943.893 59.312 942.645 62.288C941.397 65.264 939.561 67.604 937.137 69.308C934.737 70.988 931.761 71.828 928.209 71.828C924.657 71.828 921.669 71.012 919.245 69.38C916.821 67.748 914.985 65.456 913.737 62.504C912.513 59.528 911.901 56.06 911.901 52.1C911.901 48.188 912.525 44.744 913.773 41.768C915.021 38.792 916.857 36.476 919.281 34.82C921.729 33.14 924.729 32.3 928.281 32.3ZM928.281 37.232C925.017 37.232 922.545 38.444 920.865 40.868C919.209 43.268 918.381 47.012 918.381 52.1C918.381 57.092 919.197 60.8 920.829 63.224C922.485 65.648 924.945 66.86 928.209 66.86C931.473 66.86 933.921 65.648 935.553 63.224C937.209 60.8 938.037 57.068 938.037 52.028C938.037 46.988 937.221 43.268 935.589 40.868C933.957 38.444 931.521 37.232 928.281 37.232ZM981.821 33.092V64.916C981.821 69.14 980.873 72.668 978.977 75.5C977.081 78.356 974.333 80.648 970.733 82.376C967.133 84.104 962.777 85.4 957.665 86.264L956.657 81.584C960.401 80.96 963.713 80.024 966.593 78.776C969.473 77.528 971.717 75.812 973.325 73.628C974.957 71.468 975.773 68.696 975.773 65.312V37.88H960.005V33.092H981.821ZM976.169 15.344C977.513 15.344 978.593 15.752 979.409 16.568C980.225 17.384 980.633 18.38 980.633 19.556C980.633 20.78 980.225 21.812 979.409 22.652C978.593 23.468 977.513 23.876 976.169 23.876C974.873 23.876 973.829 23.468 973.037 22.652C972.245 21.812 971.849 20.78 971.849 19.556C971.849 18.38 972.245 17.384 973.037 16.568C973.829 15.752 974.873 15.344 976.169 15.344ZM1004.94 54.188C1005.06 57.116 1005.63 59.516 1006.63 61.388C1007.64 63.236 1008.97 64.604 1010.63 65.492C1012.29 66.356 1014.09 66.788 1016.03 66.788C1017.97 66.788 1019.73 66.5 1021.29 65.924C1022.87 65.348 1024.49 64.496 1026.15 63.368L1028.99 67.364C1027.21 68.756 1025.19 69.848 1022.91 70.64C1020.65 71.432 1018.33 71.828 1015.96 71.828C1012.29 71.828 1009.15 71 1006.56 69.344C1003.97 67.688 1001.99 65.384 1000.62 62.432C999.277 59.456 998.605 56.012 998.605 52.1C998.605 48.26 999.289 44.852 1000.66 41.876C1002.03 38.9 1003.95 36.56 1006.42 34.856C1008.89 33.152 1011.81 32.3 1015.17 32.3C1018.36 32.3 1021.11 33.056 1023.41 34.568C1025.71 36.056 1027.48 38.192 1028.7 40.976C1029.95 43.736 1030.57 47.036 1030.57 50.876C1030.57 51.524 1030.56 52.136 1030.54 52.712C1030.51 53.264 1030.48 53.756 1030.43 54.188H1004.94ZM1015.24 37.268C1012.43 37.268 1010.08 38.264 1008.18 40.256C1006.31 42.248 1005.24 45.332 1004.98 49.508H1024.74C1024.67 45.452 1023.78 42.404 1022.08 40.364C1020.37 38.3 1018.09 37.268 1015.24 37.268ZM1060.5 66.608C1062.39 66.608 1064.16 66.296 1065.79 65.672C1067.45 65.048 1068.97 64.256 1070.36 63.296L1073.31 67.256C1071.66 68.672 1069.67 69.788 1067.34 70.604C1065.01 71.42 1062.73 71.828 1060.5 71.828C1056.73 71.828 1053.51 71.024 1050.85 69.416C1048.21 67.784 1046.19 65.504 1044.8 62.576C1043.41 59.624 1042.71 56.168 1042.71 52.208C1042.71 48.416 1043.41 45.02 1044.8 42.02C1046.22 38.996 1048.25 36.62 1050.89 34.892C1053.55 33.164 1056.78 32.3 1060.57 32.3C1062.99 32.3 1065.26 32.672 1067.37 33.416C1069.51 34.136 1071.47 35.228 1073.24 36.692L1070.29 40.724C1068.68 39.596 1067.06 38.756 1065.43 38.204C1063.82 37.628 1062.18 37.34 1060.5 37.34C1057.23 37.34 1054.55 38.564 1052.43 41.012C1050.32 43.46 1049.27 47.192 1049.27 52.208C1049.27 55.568 1049.75 58.316 1050.71 60.452C1051.69 62.564 1053.02 64.124 1054.7 65.132C1056.41 66.116 1058.34 66.608 1060.5 66.608ZM1116.63 69.092C1115.33 69.956 1113.76 70.628 1111.91 71.108C1110.06 71.588 1108.25 71.828 1106.48 71.828C1102.4 71.828 1099.25 70.76 1097.04 68.624C1094.84 66.488 1093.73 63.74 1093.73 60.38V37.772H1085.02V33.092H1093.73V24.488L1099.78 23.768V33.092H1112.88L1112.16 37.772H1099.78V60.308C1099.78 62.42 1100.33 64.028 1101.44 65.132C1102.56 66.236 1104.42 66.788 1107.02 66.788C1108.43 66.788 1109.74 66.62 1110.94 66.284C1112.14 65.948 1113.26 65.516 1114.29 64.988L1116.63 69.092ZM1142.59 66.824C1145.5 66.824 1147.79 66.284 1149.47 65.204C1151.17 64.1 1152.02 62.636 1152.02 60.812C1152.02 59.66 1151.81 58.664 1151.38 57.824C1150.97 56.984 1150.12 56.228 1148.82 55.556C1147.52 54.884 1145.53 54.212 1142.84 53.54C1140.23 52.892 1137.95 52.148 1136 51.308C1134.08 50.444 1132.58 49.328 1131.5 47.96C1130.45 46.592 1129.92 44.816 1129.92 42.632C1129.92 40.496 1130.52 38.66 1131.72 37.124C1132.94 35.564 1134.64 34.376 1136.8 33.56C1138.96 32.72 1141.46 32.3 1144.32 32.3C1147.37 32.3 1150.02 32.708 1152.28 33.524C1154.56 34.316 1156.49 35.3 1158.07 36.476L1155.41 40.58C1153.97 39.596 1152.38 38.792 1150.66 38.168C1148.93 37.52 1146.84 37.196 1144.39 37.196C1141.42 37.196 1139.3 37.664 1138.06 38.6C1136.81 39.512 1136.18 40.7 1136.18 42.164C1136.18 43.268 1136.48 44.192 1137.08 44.936C1137.71 45.656 1138.75 46.316 1140.22 46.916C1141.68 47.492 1143.7 48.128 1146.26 48.824C1148.74 49.472 1150.88 50.252 1152.71 51.164C1154.56 52.076 1156 53.276 1157.03 54.764C1158.06 56.252 1158.58 58.172 1158.58 60.524C1158.58 63.212 1157.81 65.396 1156.27 67.076C1154.74 68.732 1152.74 69.944 1150.3 70.712C1147.87 71.456 1145.3 71.828 1142.59 71.828C1139.16 71.828 1136.23 71.336 1133.81 70.352C1131.41 69.344 1129.39 68.132 1127.76 66.716L1131.22 62.72C1132.7 63.944 1134.41 64.94 1136.33 65.708C1138.27 66.452 1140.36 66.824 1142.59 66.824Z" fill="#EE7762"/>
<path d="M551.471 36.728C551.471 34.16 550.967 32.132 549.959 30.644C548.951 29.132 547.571 28.052 545.819 27.404C544.067 26.732 542.063 26.396 539.807 26.396H532.643V47.564H539.555C541.883 47.564 543.935 47.252 545.711 46.628C547.487 45.98 548.891 44.876 549.923 43.316C550.955 41.732 551.471 39.536 551.471 36.728ZM558.167 36.656C558.167 40.52 557.339 43.616 555.683 45.944C554.051 48.272 551.795 49.964 548.915 51.02C546.035 52.076 542.723 52.604 538.979 52.604H532.643V71H526.379V21.428H539.051C544.955 21.428 549.611 22.676 553.019 25.172C556.451 27.644 558.167 31.472 558.167 36.656ZM587.658 33.092V66.212H598.35V71H569.91V66.212H581.61V37.88H570.27V33.092H587.658ZM582.834 15.344C584.178 15.344 585.246 15.752 586.038 16.568C586.854 17.384 587.262 18.38 587.262 19.556C587.262 20.78 586.854 21.812 586.038 22.652C585.246 23.468 584.178 23.876 582.834 23.876C581.562 23.876 580.518 23.468 579.702 22.652C578.886 21.812 578.478 20.78 578.478 19.556C578.478 18.38 578.886 17.384 579.702 16.568C580.518 15.752 581.562 15.344 582.834 15.344ZM611.642 71V33.092H616.79L617.258 38.348C618.794 36.404 620.714 34.916 623.018 33.884C625.346 32.828 627.602 32.3 629.786 32.3C633.506 32.3 636.206 33.284 637.886 35.252C639.59 37.22 640.442 39.956 640.442 43.46V71H634.394V47.924C634.394 45.332 634.25 43.244 633.962 41.66C633.674 40.052 633.074 38.888 632.162 38.168C631.25 37.424 629.834 37.052 627.914 37.052C626.426 37.052 625.022 37.376 623.702 38.024C622.406 38.672 621.242 39.488 620.21 40.472C619.202 41.432 618.362 42.404 617.69 43.388V71H611.642ZM654.814 71V33.092H659.962L660.43 38.348C661.966 36.404 663.886 34.916 666.19 33.884C668.518 32.828 670.774 32.3 672.958 32.3C676.678 32.3 679.378 33.284 681.058 35.252C682.762 37.22 683.614 39.956 683.614 43.46V71H677.566V47.924C677.566 45.332 677.422 43.244 677.134 41.66C676.846 40.052 676.246 38.888 675.334 38.168C674.422 37.424 673.006 37.052 671.086 37.052C669.598 37.052 668.194 37.376 666.874 38.024C665.578 38.672 664.414 39.488 663.382 40.472C662.374 41.432 661.534 42.404 660.862 43.388V71H654.814ZM702.738 54.188C702.858 57.116 703.422 59.516 704.43 61.388C705.438 63.236 706.77 64.604 708.426 65.492C710.082 66.356 711.882 66.788 713.826 66.788C715.77 66.788 717.522 66.5 719.082 65.924C720.666 65.348 722.286 64.496 723.942 63.368L726.786 67.364C725.01 68.756 722.982 69.848 720.702 70.64C718.446 71.432 716.13 71.828 713.754 71.828C710.082 71.828 706.95 71 704.358 69.344C701.766 67.688 699.786 65.384 698.418 62.432C697.074 59.456 696.402 56.012 696.402 52.1C696.402 48.26 697.086 44.852 698.454 41.876C699.822 38.9 701.742 36.56 704.214 34.856C706.686 33.152 709.602 32.3 712.962 32.3C716.154 32.3 718.902 33.056 721.206 34.568C723.51 36.056 725.274 38.192 726.498 40.976C727.746 43.736 728.37 47.036 728.37 50.876C728.37 51.524 728.358 52.136 728.334 52.712C728.31 53.264 728.274 53.756 728.226 54.188H702.738ZM713.034 37.268C710.226 37.268 707.874 38.264 705.978 40.256C704.106 42.248 703.038 45.332 702.774 49.508H722.538C722.466 45.452 721.578 42.404 719.874 40.364C718.17 38.3 715.89 37.268 713.034 37.268ZM763.838 17.072L769.886 17.828V71H764.594L764.018 65.996C762.602 68.012 760.97 69.488 759.122 70.424C757.298 71.36 755.342 71.828 753.254 71.828C749.966 71.828 747.254 71 745.118 69.344C742.982 67.688 741.398 65.384 740.366 62.432C739.334 59.456 738.818 56.012 738.818 52.1C738.818 48.308 739.406 44.924 740.582 41.948C741.758 38.948 743.45 36.596 745.658 34.892C747.89 33.164 750.566 32.3 753.686 32.3C755.87 32.3 757.79 32.684 759.446 33.452C761.102 34.196 762.566 35.3 763.838 36.764V17.072ZM755.27 37.16C752.102 37.16 749.666 38.396 747.962 40.868C746.258 43.34 745.406 47.084 745.406 52.1C745.406 55.364 745.754 58.1 746.45 60.308C747.146 62.516 748.166 64.172 749.51 65.276C750.878 66.38 752.546 66.932 754.514 66.932C756.674 66.932 758.51 66.32 760.022 65.096C761.558 63.872 762.83 62.492 763.838 60.956V42.02C762.806 40.484 761.558 39.296 760.094 38.456C758.63 37.592 757.022 37.16 755.27 37.16ZM780.694 84.068V78.776H816.694V84.068H780.694ZM853.674 36.728C853.674 34.16 853.17 32.132 852.162 30.644C851.154 29.132 849.774 28.052 848.022 27.404C846.27 26.732 844.266 26.396 842.01 26.396H834.846V47.564H841.758C844.086 47.564 846.138 47.252 847.914 46.628C849.69 45.98 851.094 44.876 852.126 43.316C853.158 41.732 853.674 39.536 853.674 36.728ZM860.37 36.656C860.37 40.52 859.542 43.616 857.886 45.944C856.254 48.272 853.998 49.964 851.118 51.02C848.238 52.076 844.926 52.604 841.182 52.604H834.846V71H828.582V21.428H841.254C847.158 21.428 851.814 22.676 855.222 25.172C858.654 27.644 860.37 31.472 860.37 36.656ZM871.034 71V66.356H876.938V37.736H871.034V33.092H881.546L882.662 42.056C884.126 38.936 885.902 36.524 887.99 34.82C890.078 33.116 892.838 32.264 896.27 32.264C897.326 32.264 898.262 32.348 899.078 32.516C899.918 32.66 900.77 32.852 901.634 33.092L899.87 38.492C899.078 38.276 898.358 38.12 897.71 38.024C897.062 37.904 896.318 37.844 895.478 37.844C892.574 37.844 890.078 38.876 887.99 40.94C885.902 43.004 884.234 46.124 882.986 50.3V66.356H890.69V71H871.034ZM895.802 45.908V37.664L896.414 33.092H901.634L900.77 45.908H895.802ZM928.281 32.3C931.857 32.3 934.845 33.116 937.245 34.748C939.669 36.356 941.481 38.636 942.681 41.588C943.905 44.54 944.517 48.02 944.517 52.028C944.517 55.892 943.893 59.312 942.645 62.288C941.397 65.264 939.561 67.604 937.137 69.308C934.737 70.988 931.761 71.828 928.209 71.828C924.657 71.828 921.669 71.012 919.245 69.38C916.821 67.748 914.985 65.456 913.737 62.504C912.513 59.528 911.901 56.06 911.901 52.1C911.901 48.188 912.525 44.744 913.773 41.768C915.021 38.792 916.857 36.476 919.281 34.82C921.729 33.14 924.729 32.3 928.281 32.3ZM928.281 37.232C925.017 37.232 922.545 38.444 920.865 40.868C919.209 43.268 918.381 47.012 918.381 52.1C918.381 57.092 919.197 60.8 920.829 63.224C922.485 65.648 924.945 66.86 928.209 66.86C931.473 66.86 933.921 65.648 935.553 63.224C937.209 60.8 938.037 57.068 938.037 52.028C938.037 46.988 937.221 43.268 935.589 40.868C933.957 38.444 931.521 37.232 928.281 37.232ZM981.821 33.092V64.916C981.821 69.14 980.873 72.668 978.977 75.5C977.081 78.356 974.333 80.648 970.733 82.376C967.133 84.104 962.777 85.4 957.665 86.264L956.657 81.584C960.401 80.96 963.713 80.024 966.593 78.776C969.473 77.528 971.717 75.812 973.325 73.628C974.957 71.468 975.773 68.696 975.773 65.312V37.88H960.005V33.092H981.821ZM976.169 15.344C977.513 15.344 978.593 15.752 979.409 16.568C980.225 17.384 980.633 18.38 980.633 19.556C980.633 20.78 980.225 21.812 979.409 22.652C978.593 23.468 977.513 23.876 976.169 23.876C974.873 23.876 973.829 23.468 973.037 22.652C972.245 21.812 971.849 20.78 971.849 19.556C971.849 18.38 972.245 17.384 973.037 16.568C973.829 15.752 974.873 15.344 976.169 15.344ZM1004.94 54.188C1005.06 57.116 1005.63 59.516 1006.63 61.388C1007.64 63.236 1008.97 64.604 1010.63 65.492C1012.29 66.356 1014.09 66.788 1016.03 66.788C1017.97 66.788 1019.73 66.5 1021.29 65.924C1022.87 65.348 1024.49 64.496 1026.15 63.368L1028.99 67.364C1027.21 68.756 1025.19 69.848 1022.91 70.64C1020.65 71.432 1018.33 71.828 1015.96 71.828C1012.29 71.828 1009.15 71 1006.56 69.344C1003.97 67.688 1001.99 65.384 1000.62 62.432C999.277 59.456 998.605 56.012 998.605 52.1C998.605 48.26 999.289 44.852 1000.66 41.876C1002.03 38.9 1003.95 36.56 1006.42 34.856C1008.89 33.152 1011.81 32.3 1015.17 32.3C1018.36 32.3 1021.11 33.056 1023.41 34.568C1025.71 36.056 1027.48 38.192 1028.7 40.976C1029.95 43.736 1030.57 47.036 1030.57 50.876C1030.57 51.524 1030.56 52.136 1030.54 52.712C1030.51 53.264 1030.48 53.756 1030.43 54.188H1004.94ZM1015.24 37.268C1012.43 37.268 1010.08 38.264 1008.18 40.256C1006.31 42.248 1005.24 45.332 1004.98 49.508H1024.74C1024.67 45.452 1023.78 42.404 1022.08 40.364C1020.37 38.3 1018.09 37.268 1015.24 37.268ZM1060.5 66.608C1062.39 66.608 1064.16 66.296 1065.79 65.672C1067.45 65.048 1068.97 64.256 1070.36 63.296L1073.31 67.256C1071.66 68.672 1069.67 69.788 1067.34 70.604C1065.01 71.42 1062.73 71.828 1060.5 71.828C1056.73 71.828 1053.51 71.024 1050.85 69.416C1048.21 67.784 1046.19 65.504 1044.8 62.576C1043.41 59.624 1042.71 56.168 1042.71 52.208C1042.71 48.416 1043.41 45.02 1044.8 42.02C1046.22 38.996 1048.25 36.62 1050.89 34.892C1053.55 33.164 1056.78 32.3 1060.57 32.3C1062.99 32.3 1065.26 32.672 1067.37 33.416C1069.51 34.136 1071.47 35.228 1073.24 36.692L1070.29 40.724C1068.68 39.596 1067.06 38.756 1065.43 38.204C1063.82 37.628 1062.18 37.34 1060.5 37.34C1057.23 37.34 1054.55 38.564 1052.43 41.012C1050.32 43.46 1049.27 47.192 1049.27 52.208C1049.27 55.568 1049.75 58.316 1050.71 60.452C1051.69 62.564 1053.02 64.124 1054.7 65.132C1056.41 66.116 1058.34 66.608 1060.5 66.608ZM1116.63 69.092C1115.33 69.956 1113.76 70.628 1111.91 71.108C1110.06 71.588 1108.25 71.828 1106.48 71.828C1102.4 71.828 1099.25 70.76 1097.04 68.624C1094.84 66.488 1093.73 63.74 1093.73 60.38V37.772H1085.02V33.092H1093.73V24.488L1099.78 23.768V33.092H1112.88L1112.16 37.772H1099.78V60.308C1099.78 62.42 1100.33 64.028 1101.44 65.132C1102.56 66.236 1104.42 66.788 1107.02 66.788C1108.43 66.788 1109.74 66.62 1110.94 66.284C1112.14 65.948 1113.26 65.516 1114.29 64.988L1116.63 69.092ZM1142.59 66.824C1145.5 66.824 1147.79 66.284 1149.47 65.204C1151.17 64.1 1152.02 62.636 1152.02 60.812C1152.02 59.66 1151.81 58.664 1151.38 57.824C1150.97 56.984 1150.12 56.228 1148.82 55.556C1147.52 54.884 1145.53 54.212 1142.84 53.54C1140.23 52.892 1137.95 52.148 1136 51.308C1134.08 50.444 1132.58 49.328 1131.5 47.96C1130.45 46.592 1129.92 44.816 1129.92 42.632C1129.92 40.496 1130.52 38.66 1131.72 37.124C1132.94 35.564 1134.64 34.376 1136.8 33.56C1138.96 32.72 1141.46 32.3 1144.32 32.3C1147.37 32.3 1150.02 32.708 1152.28 33.524C1154.56 34.316 1156.49 35.3 1158.07 36.476L1155.41 40.58C1153.97 39.596 1152.38 38.792 1150.66 38.168C1148.93 37.52 1146.84 37.196 1144.39 37.196C1141.42 37.196 1139.3 37.664 1138.06 38.6C1136.81 39.512 1136.18 40.7 1136.18 42.164C1136.18 43.268 1136.48 44.192 1137.08 44.936C1137.71 45.656 1138.75 46.316 1140.22 46.916C1141.68 47.492 1143.7 48.128 1146.26 48.824C1148.74 49.472 1150.88 50.252 1152.71 51.164C1154.56 52.076 1156 53.276 1157.03 54.764C1158.06 56.252 1158.58 58.172 1158.58 60.524C1158.58 63.212 1157.81 65.396 1156.27 67.076C1154.74 68.732 1152.74 69.944 1150.3 70.712C1147.87 71.456 1145.3 71.828 1142.59 71.828C1139.16 71.828 1136.23 71.336 1133.81 70.352C1131.41 69.344 1129.39 68.132 1127.76 66.716L1131.22 62.72C1132.7 63.944 1134.41 64.94 1136.33 65.708C1138.27 66.452 1140.36 66.824 1142.59 66.824Z" fill="#70D7FF"/>
</g>
</g>
<defs>
<filter id="filter0_d_1_3" x="3.236" y="15.344" width="1193.8" height="78.92" filterUnits="userSpaceOnUse" color-interpolation-filters="sRGB">
<feFlood flood-opacity="0" result="BackgroundImageFix"/>
<feColorMatrix in="SourceAlpha" type="matrix" values="0 0 0 0 0 0 0 0 0 0 0 0 0 0 0 0 0 0 127 0" result="hardAlpha"/>
<feOffset dy="4"/>
<feGaussianBlur stdDeviation="2"/>
<feComposite in2="hardAlpha" operator="out"/>
<feColorMatrix type="matrix" values="0 0 0 0 0 0 0 0 0 0 0 0 0 0 0 0 0 0 0.25 0"/>
<feBlend mode="normal" in2="BackgroundImageFix" result="effect1_dropShadow_1_3"/>
<feBlend mode="normal" in="SourceGraphic" in2="effect1_dropShadow_1_3" result="shape"/>
</filter>
<clipPath id="clip0_1_3">
<rect width="1209" height="94" fill="white"/>
</clipPath>
</defs>
</svg>
